<svg viewBox="0 0 512 512" xmlns="http://www.w3.org/2000/svg" fill-rule="evenodd" clip-rule="evenodd" stroke-linejoin="round" stroke-miterlimit="2"><path d="M341.172 281.633c-18.676 0-35.42 8.275-46.886 21.302l-29.38-20.8c3.119-8.587 4.91-17.807 4.91-27.458 0-9.483-1.729-18.549-4.745-27.009l29.315-20.579c11.464 12.961 28.164 21.19 46.786 21.19 34.471 0 62.52-28.044 62.52-62.52 0-34.475-28.049-62.52-62.52-62.52-34.471 0-62.52 28.045-62.52 62.52 0 6.171.932 12.122 2.605 17.757l-29.334 20.59c-12.254-15.203-29.897-25.817-50-29.057v-35.354c28.32-5.948 49.658-31.11 49.658-61.175 0-34.476-28.048-62.52-62.52-62.52-34.47 0-62.52 28.044-62.52 62.52 0 29.663 20.786 54.514 48.54 60.887v35.813c-37.877 6.648-66.774 39.704-66.774 79.457 0 39.948 29.183 73.124 67.333 79.546v37.816c-28.037 6.163-49.099 31.167-49.099 61.032 0 34.476 28.05 62.52 62.52 62.52 34.472 0 62.52-28.044 62.52-62.52 0-29.865-21.06-54.869-49.098-61.032v-37.817a80.75 80.75 0 0049.154-28.587l29.576 20.934c-1.642 5.584-2.561 11.476-2.561 17.584 0 34.476 28.049 62.52 62.52 62.52 34.471 0 62.52-28.044 62.52-62.52 0-34.475-28.049-62.52-62.52-62.52zm0-146.186c16.716 0 30.311 13.601 30.311 30.313 0 16.71-13.595 30.311-30.311 30.311s-30.312-13.6-30.312-30.311c0-16.712 13.596-30.313 30.312-30.313zM158.749 78.52c0-16.712 13.597-30.312 30.312-30.312 16.716 0 30.312 13.6 30.312 30.312 0 16.71-13.596 30.311-30.312 30.311-16.715 0-30.312-13.6-30.312-30.311zm60.624 354.551c0 16.711-13.596 30.312-30.312 30.312-16.715 0-30.312-13.6-30.312-30.312 0-16.711 13.597-30.312 30.312-30.312 16.716 0 30.312 13.6 30.312 30.312zm-30.314-136.12c-23.313 0-42.28-18.961-42.28-42.274 0-23.313 18.967-42.279 42.28-42.279 23.312 0 42.278 18.966 42.278 42.28 0 23.312-18.966 42.274-42.278 42.274zm152.113 77.515c-16.716 0-30.312-13.602-30.312-30.313 0-16.71 13.596-30.311 30.312-30.311s30.311 13.6 30.311 30.311-13.595 30.313-30.311 30.313z" fill="#231f20" fill-rule="nonzero"/></svg>