<svg width="621" height="702" viewBox="0 0 621 702" fill="none" xmlns="http://www.w3.org/2000/svg">
<g id="Union">
<mask id="path-1-inside-1_2715_1995" fill="white">
<path d="M274.993 11.8351C295.748 -3.94503 324.482 -3.94503 345.236 11.8351C439.157 83.2419 374.83 355.293 335.044 491.911C351.162 496.789 365.316 506.275 376.021 518.86C483.888 408.061 476.937 288.741 538.385 198.138C546.246 186.546 563.135 186.203 571.381 197.511C612.199 253.478 625.699 396.317 588.31 477.51C558.106 543.092 454.244 559.169 396.09 562.969C396.748 567.339 397.091 571.815 397.091 576.372C397.091 586.824 395.293 596.849 391.998 606.151C458.278 602.443 572.412 582.206 596.692 584.866C624.891 587.951 633.274 602.629 590.591 676C554.778 737.575 413.736 674.035 363.913 645.627C349.111 657.451 330.426 664.507 310.114 664.507C289.803 664.507 271.117 657.45 256.315 645.626C206.491 674.035 65.4504 737.574 29.6378 676C-13.045 602.628 -4.66162 587.951 23.5372 584.866C47.8184 582.206 161.951 602.443 228.231 606.151C224.936 596.849 223.139 586.823 223.139 576.372C223.139 571.816 223.48 567.339 224.138 562.969C165.983 559.169 62.1229 543.091 31.92 477.51C-5.4697 396.317 8.0302 253.478 48.8487 197.511C57.0945 186.203 73.9835 186.546 81.8448 198.138C143.292 288.741 136.341 408.061 244.207 518.86C254.912 506.275 269.067 496.789 285.185 491.911C245.399 355.293 181.073 83.2419 274.993 11.8351Z"/>
</mask>
<path d="M274.993 11.8351L275.599 12.6311V12.6311L274.993 11.8351ZM345.236 11.8351L344.631 12.6311V12.6311L345.236 11.8351ZM335.044 491.911L334.084 491.632L333.807 492.582L334.754 492.868L335.044 491.911ZM376.021 518.86L375.259 519.508L375.971 520.345L376.737 519.558L376.021 518.86ZM538.385 198.138L539.212 198.699L539.213 198.699L538.385 198.138ZM571.381 197.511L570.573 198.1L570.573 198.1L571.381 197.511ZM588.31 477.51L589.218 477.928L589.218 477.928L588.31 477.51ZM396.09 562.969L396.025 561.971L394.939 562.042L395.101 563.118L396.09 562.969ZM397.091 576.372H398.091V576.372H397.091ZM391.998 606.151L391.056 605.818L390.554 607.234L392.054 607.15L391.998 606.151ZM596.693 584.866L596.584 585.86L596.584 585.86L596.693 584.866ZM590.591 676L589.727 675.497L589.727 675.497L590.591 676ZM363.913 645.627L364.409 644.758L363.819 644.422L363.289 644.846L363.913 645.627ZM310.114 664.507V665.507V665.507V664.507ZM256.315 645.626L256.939 644.845L256.409 644.421L255.819 644.757L256.315 645.626ZM29.6378 676L30.5022 675.497L30.5022 675.497L29.6378 676ZM23.5372 584.866L23.646 585.86L23.6461 585.86L23.5372 584.866ZM228.231 606.151L228.175 607.15L229.675 607.234L229.173 605.818L228.231 606.151ZM223.139 576.372H222.139V576.372H223.139ZM224.138 562.969L225.127 563.118L225.289 562.042L224.203 561.971L224.138 562.969ZM31.92 477.51L31.0117 477.928L31.0117 477.928L31.92 477.51ZM48.8487 197.511L49.6567 198.1L49.6567 198.1L48.8487 197.511ZM81.8448 198.138L81.0172 198.699L81.0172 198.699L81.8448 198.138ZM244.207 518.86L243.491 519.558L244.257 520.345L244.969 519.508L244.207 518.86ZM285.185 491.911L285.474 492.868L286.421 492.582L286.145 491.632L285.185 491.911ZM274.993 11.8351L275.599 12.6311C295.996 -2.87704 324.234 -2.87704 344.631 12.6311L345.236 11.8351L345.842 11.039C324.729 -5.01301 295.5 -5.01301 274.388 11.039L274.993 11.8351ZM345.236 11.8351L344.631 12.6311C367.82 30.2615 381.34 60.3586 387.876 97.9312C394.41 135.486 393.938 180.356 389.285 227.32C379.979 321.244 353.971 423.342 334.084 491.632L335.044 491.911L336.004 492.191C355.903 423.863 381.951 321.626 391.275 227.518C395.937 180.466 396.424 135.395 389.847 97.5884C383.273 59.7989 369.613 29.1121 345.842 11.039L345.236 11.8351ZM335.044 491.911L334.754 492.868C350.683 497.689 364.675 507.065 375.259 519.508L376.021 518.86L376.782 518.213C365.957 505.486 351.64 495.889 335.334 490.954L335.044 491.911ZM376.021 518.86L376.737 519.558C430.816 464.008 456.105 406.323 475.553 351.259C495.019 296.142 508.584 243.861 539.212 198.699L538.385 198.138L537.557 197.577C506.738 243.019 493.055 295.699 473.667 350.593C454.261 405.539 429.092 462.913 375.304 518.163L376.021 518.86ZM538.385 198.138L539.213 198.699C546.688 187.676 562.738 187.356 570.573 198.1L571.381 197.511L572.189 196.922C563.532 185.05 545.804 185.416 537.557 197.577L538.385 198.138ZM571.381 197.511L570.573 198.1C590.82 225.861 604.378 275.34 608.176 328.122C611.973 380.884 606 436.705 587.401 477.092L588.31 477.51L589.218 477.928C608.009 437.122 613.981 380.927 610.171 327.979C606.362 275.052 592.761 225.128 572.189 196.922L571.381 197.511ZM588.31 477.51L587.401 477.092C572.471 509.51 539.275 529.801 502.357 542.462C465.467 555.113 425.063 560.074 396.025 561.971L396.09 562.969L396.155 563.967C425.272 562.064 465.876 557.087 503.006 544.354C540.108 531.63 573.945 511.091 589.218 477.928L588.31 477.51ZM396.09 562.969L395.101 563.118C395.752 567.439 396.091 571.866 396.091 576.372H397.091H398.091C398.091 571.765 397.744 567.239 397.079 562.82L396.09 562.969ZM397.091 576.372H396.091C396.091 586.708 394.313 596.621 391.056 605.818L391.998 606.151L392.941 606.485C396.273 597.078 398.091 586.939 398.091 576.372H397.091ZM391.998 606.151L392.054 607.15C425.24 605.293 470.387 599.301 510.224 594.112C530.154 591.517 548.755 589.122 563.89 587.543C579.066 585.959 590.64 585.209 596.584 585.86L596.693 584.866L596.801 583.872C590.605 583.193 578.806 583.975 563.682 585.554C548.517 587.136 529.89 589.534 509.966 592.129C470.096 597.322 425.037 603.302 391.942 605.153L391.998 606.151ZM596.693 584.866L596.584 585.86C603.588 586.627 609.184 588.1 613.051 590.9C616.846 593.646 619.086 597.75 619.222 604.097C619.361 610.507 617.348 619.166 612.59 630.864C607.839 642.545 600.386 657.174 589.727 675.497L590.591 676L591.455 676.503C602.137 658.141 609.642 643.421 614.443 631.617C619.237 619.831 621.369 610.871 621.222 604.054C621.074 597.175 618.598 592.445 614.224 589.279C609.923 586.166 603.896 584.648 596.801 583.872L596.693 584.866ZM590.591 676L589.727 675.497C580.983 690.531 565.795 697.998 546.953 700.233C528.091 702.47 505.683 699.444 482.753 693.588C436.904 681.879 389.273 658.936 364.409 644.758L363.913 645.627L363.418 646.496C388.377 660.727 436.178 683.758 482.258 695.526C505.294 701.409 527.975 704.498 547.188 702.219C566.42 699.938 582.293 692.256 591.455 676.503L590.591 676ZM363.913 645.627L363.289 644.846C348.656 656.534 330.19 663.507 310.114 663.507V664.507V665.507C330.662 665.507 349.565 658.368 364.537 646.408L363.913 645.627ZM310.114 664.507L310.114 663.507C290.039 663.507 271.572 656.534 256.939 644.845L256.315 645.626L255.69 646.407C270.663 658.367 289.566 665.507 310.114 665.507V664.507ZM256.315 645.626L255.819 644.757C230.955 658.935 183.324 681.878 137.475 693.588C114.545 699.444 92.1374 702.47 73.2759 700.233C54.4332 697.998 39.2461 690.531 30.5022 675.497L29.6378 676L28.7734 676.503C37.9358 692.256 53.8085 699.938 73.0403 702.219C92.2531 704.498 114.935 701.409 137.97 695.526C184.049 683.757 231.851 660.726 256.81 646.495L256.315 645.626ZM29.6378 676L30.5022 675.497C19.8428 657.174 12.3894 642.545 7.63861 630.864C2.88106 619.166 0.868351 610.507 1.00664 604.097C1.14358 597.75 3.38304 593.646 7.17808 590.899C11.0457 588.1 16.6414 586.627 23.646 585.86L23.5372 584.866L23.4285 583.872C16.3336 584.648 10.3068 586.166 6.00546 589.279C1.63152 592.445 -0.844472 597.175 -0.992891 604.054C-1.13995 610.87 0.99209 619.83 5.78598 631.617C10.5866 643.421 18.0913 658.14 28.7734 676.503L29.6378 676ZM23.5372 584.866L23.6461 585.86C29.5898 585.209 41.1633 585.959 56.3398 587.543C71.4748 589.123 90.0759 591.517 110.005 594.112C149.842 599.301 194.989 605.293 228.175 607.15L228.231 606.151L228.286 605.153C195.192 603.302 150.133 597.322 110.263 592.129C90.3395 589.534 71.7124 587.137 56.5474 585.554C41.4237 583.976 29.6252 583.193 23.4283 583.872L23.5372 584.866ZM228.231 606.151L229.173 605.818C225.916 596.621 224.139 586.708 224.139 576.372H223.139H222.139C222.139 586.939 223.955 597.078 227.288 606.485L228.231 606.151ZM223.139 576.372H224.139C224.139 571.865 224.476 567.439 225.127 563.118L224.138 562.969L223.149 562.82C222.484 567.24 222.139 571.766 222.139 576.372H223.139ZM224.138 562.969L224.203 561.971C195.165 560.074 154.761 555.112 117.871 542.461C80.9539 529.801 47.7584 509.51 32.8283 477.092L31.92 477.51L31.0117 477.928C46.2846 511.091 80.1206 531.63 117.223 544.353C154.352 557.087 194.956 562.064 224.073 563.967L224.138 562.969ZM31.92 477.51L32.8283 477.092C14.23 436.705 8.25682 380.884 12.0537 328.122C15.8521 275.34 29.41 225.861 49.6567 198.1L48.8487 197.511L48.0408 196.922C27.4689 225.128 13.8677 275.052 10.0589 327.979C6.24859 380.927 12.2203 437.122 31.0117 477.928L31.92 477.51ZM48.8487 197.511L49.6567 198.1C57.4914 187.356 73.5413 187.675 81.0172 198.699L81.8448 198.138L82.6725 197.577C74.4257 185.416 56.6977 185.05 48.0407 196.922L48.8487 197.511ZM81.8448 198.138L81.0172 198.699C111.646 243.86 125.21 296.142 144.676 351.259C164.123 406.323 189.412 464.009 243.491 519.558L244.207 518.86L244.924 518.163C191.136 462.913 165.967 405.539 146.562 350.593C127.175 295.698 113.491 243.019 82.6724 197.577L81.8448 198.138ZM244.207 518.86L244.969 519.508C255.553 507.065 269.546 497.689 285.474 492.868L285.185 491.911L284.895 490.954C268.588 495.889 254.271 505.485 243.445 518.213L244.207 518.86ZM285.185 491.911L286.145 491.632C266.257 423.342 240.25 321.244 230.944 227.32C226.291 180.356 225.82 135.486 232.353 97.9312C238.89 60.3586 252.409 30.2615 275.599 12.6311L274.993 11.8351L274.388 11.039C250.617 29.1121 236.957 59.7989 230.383 97.5884C223.806 135.395 224.292 180.466 228.954 227.518C238.278 321.625 264.326 423.862 284.225 492.191L285.185 491.911Z" fill="#363F55" mask="url(#path-1-inside-1_2715_1995)"/>
</g>
</svg>
